<svg width="100" height="100" viewBox="0 0 100 100" fill="none" xmlns="http://www.w3.org/2000/svg">
<g clip-path="url(#clip0_53_20)">
<circle cx="50" cy="50" r="50" fill="url(#paint0_linear_53_20)"/>
<path d="M73.3614 150.531C61.3451 170.603 36.8481 184.255 34.5842 185.422C29.9982 187.873 28.3148 191.432 28.6051 196.742C28.8953 202.051 27.6183 228.365 11.6546 239.976C3.46962 245.927 -29.5606 253.629 -44.7116 256.196C-52.4902 257.538 -54.2898 259.93 -58.5855 262.498C-64.3904 266.115 -84.998 294.821 -88.481 301.181C-88.0166 301.123 -23.5235 280.993 -20.621 280.526C-12.9584 279.36 -7.15347 281.577 -3.38025 287.178C0.218829 292.546 3.75987 297.972 7.3009 303.398C8.57799 305.324 9.79704 307.307 11.0161 309.291L12.2932 311.333C12.7576 312.092 13.3961 312.967 13.6863 314.134C13.9185 314.951 14.441 317.693 12.8736 319.327C11.4224 320.844 8.92624 320.844 7.5911 320.493C6.31401 320.143 4.3984 319.385 2.83106 318.101L0.683239 316.293C-1.0002 314.834 -4.19297 314.134 -6.68911 314.25C-9.59159 314.367 -13.4228 313.434 -15.2804 312.267C-18.8795 309.933 -19.8083 304.098 -19.8083 304.04C-20.2727 302.114 -21.6659 301.589 -22.943 301.589C-25.265 301.531 -27.0645 302.231 -28.9221 302.756C-37.3973 305.324 -45.8145 307.949 -54.2898 310.633L-66.4221 314.426C-72.4012 316.293 -78.3803 318.16 -84.3014 320.143C-85.9268 320.669 -87.4942 321.485 -89.1776 322.361C-89.8742 322.711 -90.5708 323.061 -91.2674 323.411C-91.964 323.761 -92.7186 324.169 -93.4152 324.578C-94.9826 325.453 -96.666 326.386 -98.5236 326.912C-104.561 328.72 -109.843 326.095 -112.339 320.027C-113.965 316.118 -112.514 308.358 -111.643 306.082C-106.186 291.846 -88.4229 265.006 -88.4229 264.831C-88.7132 264.715 -108.102 272.533 -111.294 274.984C-120.06 281.693 -140.61 297.564 -140.9 299.081C-142.235 306.14 -146.589 311.45 -153.264 314.075C-158.082 315.943 -160.985 319.793 -163.829 323.527C-163.829 323.527 -215.319 394.826 -218.802 398.677C-219.847 399.844 -229.484 409.996 -232.038 414.722C-232.618 415.889 -234.824 420.557 -235.405 421.724C-235.869 422.657 -236.914 425.166 -240.861 424.991C-244.809 424.816 -244.925 419.273 -245.099 416.881C-245.505 410.988 -244.228 405.212 -241.152 399.144C-240.861 398.561 -237.378 393.251 -238.655 388.992C-239.816 385.258 -240.919 379.481 -239.178 376.564C-236.449 371.955 -231.631 371.78 -225.188 370.729C-220.718 369.971 -217.467 367.754 -214.333 363.145C-207.715 353.459 -182.812 317.926 -177.181 309.699C-175.672 307.541 -174.511 304.74 -173.988 301.998C-172.363 293.713 -167.37 287.936 -158.663 284.377C-156.805 283.619 -122.15 254.504 -122.15 250.77C-122.15 248.086 -125.923 246.627 -128.825 245.811C-129.232 245.694 -151 240.034 -160.927 235.483C-166.326 233.033 -170.389 230.874 -175.207 227.373C-181.767 222.53 -194.886 224.864 -196.802 225.156C-206.09 226.498 -212.997 230.699 -220.834 236.008C-222.227 237 -229.367 239.568 -232.967 237.525C-239.991 233.5 -255.432 226.265 -261.121 217.571C-263.733 213.545 -263.385 207.01 -261.527 199.776C-255.548 182.972 -246.724 175.445 -230.412 170.894C-218.802 166.868 -195.408 165.993 -184.147 165.118C-183.392 164.885 -158.431 164.301 -140.9 155.258C-129.232 149.248 -94.5762 126.085 -44.7116 127.66C-24.5684 128.302 13.5122 148.081 28.1988 148.664C43.1756 149.306 50.664 147.614 59.3133 138.629C61.7514 136.062 72.1423 113.54 62.3319 101.229C58.6748 96.6781 54.9015 92.5939 50.5478 88.8597C44.6848 83.842 38.5896 79.0576 33.3071 73.398C21.6391 60.9703 18.04 43.9916 23.5547 30.7471C27.0958 21.47 34.5262 17.4442 45.2654 19.5446C52.8118 21.0033 58.3265 27.8298 63.7251 31.4472C66.7437 33.4893 71.794 34.6562 75.1029 35.4731C79.2824 36.465 82.4171 39.674 82.2429 41.8328C82.0688 43.9916 76.5541 45.8587 71.2716 45.4503C65.0022 45.0418 54.263 44.9835 47.8195 47.1423C43.5239 48.7176 41.6082 53.502 42.8853 58.228C43.9302 62.0789 52.1152 68.9637 55.1918 71.5309C61.3451 76.607 67.9047 81.2164 73.0131 87.5761C78.76 94.811 81.7785 103.038 82.7073 112.14C84.1005 126.084 80.4434 138.629 73.3614 150.531Z" fill="white"/>
</g>
<defs>
<linearGradient id="paint0_linear_53_20" x1="97.5" y1="-26" x2="-82.5" y2="186.5" gradientUnits="userSpaceOnUse">
<stop stop-color="#0467FC"/>
<stop offset="1" stop-color="#0C1D4E"/>
</linearGradient>
<clipPath id="clip0_53_20">
<rect width="100" height="100" rx="50" fill="white"/>
</clipPath>
</defs>
</svg>
